HIERARCHY
ROOT Hips
{
    OFFSET 0.000000 0.000000 0.000000
    CHANNELS 6 Xposition Yposition Zposition Zrotation Xrotation Yrotation
        JOINT Chest
        {
            OFFSET -0.000000 26.978363 -0.000000
            CHANNELS 3 Zrotation Xrotation Yrotation
            JOINT Neck
            {
                OFFSET -0.000000 19.720629 0.000000
                CHANNELS 3 Zrotation Xrotation Yrotation
                JOINT Head
                {
                    OFFSET -0.000000 9.655557 0.000000
                    CHANNELS 3 Zrotation Xrotation Yrotation
                    End Site
                    {
                        OFFSET -0.000000 14.922232 0.000000
                    }
                }
            }
            JOINT LeftCollar
            {
                OFFSET -0.000000 19.720629 0.000000
                CHANNELS 3 Zrotation Xrotation Yrotation
                JOINT LeftShoulder
                {
                    OFFSET 17.555553 -0.000000 0.000000
                    CHANNELS 3 Zrotation Xrotation Yrotation
                    JOINT LeftElbow
                    {
                        OFFSET 22.589397 0.000000 0.000000
                        CHANNELS 3 Zrotation Xrotation Yrotation
                        JOINT LeftWrist
                        {
                            OFFSET 20.401022 0.000000 0.000000
                            CHANNELS 3 Zrotation Xrotation Yrotation
                            End Site
                            {
                                OFFSET 0.000000 -13.166666 0.000000
                            }
                        }
                    }
                }
            }
            JOINT RightCollar
            {
                OFFSET -0.000000 19.720629 0.000000
                CHANNELS 3 Zrotation Xrotation Yrotation
                JOINT RightShoulder
                {
                    OFFSET -17.555553 0.000000 0.000000
                    CHANNELS 3 Zrotation Xrotation Yrotation
                    JOINT RightElbow
                    {
                        OFFSET -22.589397 0.000000 0.000000
                        CHANNELS 3 Zrotation Xrotation Yrotation
                        JOINT RightWrist
                        {
                            OFFSET -20.401022 0.000000 0.000000
                            CHANNELS 3 Zrotation Xrotation Yrotation
                            End Site
                            {
                                OFFSET -0.000000 -13.166666 0.000000
                            }
                        }
                    }
                }
            }
        }
    JOINT LeftHip
    {
        OFFSET 10.533332 0.000000 0.000000
        CHANNELS 3 Zrotation Xrotation Yrotation
        JOINT LeftKnee
        {
            OFFSET -0.000000 -40.048210 0.000000
            CHANNELS 3 Zrotation Xrotation Yrotation
            JOINT LeftAnkle
            {
                OFFSET -0.000000 -36.098888 0.000000
                CHANNELS 3 Zrotation Xrotation Yrotation
                End Site
                {
                    OFFSET -0.000000 -4.388888 14.922232
                }
            }
        }
    }
    JOINT RightHip
    {
        OFFSET -10.533332 0.000000 0.000000
        CHANNELS 3 Zrotation Xrotation Yrotation
        JOINT RightKnee
        {
            OFFSET -0.000000 -40.048210 0.000000
            CHANNELS 3 Zrotation Xrotation Yrotation
            JOINT RightAnkle
            {
                OFFSET -0.000000 -36.098888 0.000000
                CHANNELS 3 Zrotation Xrotation Yrotation
                End Site
                {
                    OFFSET -0.000000 -4.388888 14.922232
                }
            }
        }
    }
}
MOTION
Frames:    8
Frame Time:    0.010000
36.664600    81.844955    -19.719093    3.067483    6.790244    4.752378    -16.804026    11.321781    8.122117    7.122835    2.121397    -13.625094    3.714592    -20.957401    -12.796808    -23.763815    0.010771    0.180189    1.993692    57.496616    -55.951694    19.991282    -9.497178    -49.298035    117.873550    -2.627706    64.475433    9.603050    0.532562    6.175870    66.712135    0.977680    14.179744    24.768448    9.842654    40.460682    -115.019440    -38.423779    19.488785    4.383621    -31.416506    9.051885    8.179532    27.184723    -4.762773    -12.768678    2.074419    5.124105    -17.622925    -7.714425    -19.191820    -2.417724    26.779627    -25.267618    16.897345    -16.351473    -2.049276    
36.064617    81.882927    -19.830122    3.014479    6.146909    3.481039    -16.822599    11.109489    7.740611    6.956222    2.268095    -12.873177    3.831448    -20.347429    -12.039063    -23.832495    -0.061021    0.595580    3.669046    57.740101    -57.584911    20.988146    -10.031149    -48.977177    117.553215    -2.555068    65.305374    9.853627    0.531138    5.993494    67.071686    1.285312    13.729375    26.284576    10.255478    39.641891    -114.455650    -40.202110    20.645315    5.369035    -30.277124    9.117632    7.902032    26.611082    -3.667557    -12.903095    2.454197    5.441310    -17.032267    -7.510067    -18.909180    -2.684437    26.620888    -24.062759    17.303900    -16.924103    -1.937208    
35.447590    81.920372    -19.947306    2.917444    5.534442    2.266012    -16.825201    10.936798    7.500325    6.866312    2.347576    -12.173821    3.845508    -19.753130    -11.354989    -23.907671    -0.141200    0.993042    5.738142    58.064110    -59.649540    22.152262    -10.578515    -48.543991    117.357506    -2.286927    66.332802    10.071791    0.509148    5.772509    67.443031    1.531927    13.288240    27.786278    10.597623    38.746937    -113.852280    -42.059708    21.896477    6.341935    -29.138203    9.129758    7.616642    25.988819    -2.537770    -13.032323    2.904751    5.725368    -16.443951    -7.309490    -18.341276    -2.781533    26.517014    -22.884436    17.538303    -17.532999    -1.975746    
34.816689    81.958733    -20.070505    2.774999    4.965996    1.109347    -16.803804    10.799206    7.401398    6.858758    2.357920    -11.530719    3.751920    -19.174398    -10.748486    -23.992634    -0.216956    1.329518    8.011081    58.391899    -61.953659    23.399761    -11.101941    -48.040165    117.245003    -1.864551    67.485504    10.248622    0.486867    5.516794    67.838837    1.698697    12.875257    29.256741    10.863585    37.722557    -113.216858    -44.009449    23.217451    7.312274    -28.015253    9.112359    7.324282    25.318396    -1.370249    -13.138312    3.428554    5.949403    -15.867970    -7.132768    -17.531479    -2.686554    26.473036    -21.782969    17.568256    -18.151274    -2.169199    
34.174938    81.999374    -20.200010    2.586079    4.454696    0.011438    -16.748631    10.687042    7.435425    6.931989    2.299865    -10.944887    3.556618    -18.607302    -10.216281    -24.091623    -0.285093    1.570205    10.282037    58.675598    -64.287376    24.653887    -11.570964    -47.513859    117.156067    -1.352793    68.689278    10.379332    0.471064    5.232160    68.265152    1.782253    12.499876    30.659571    11.042151    36.612892    -112.507790    -46.006512    24.620462    8.290188    -26.924238    9.087808    7.025916    24.601879    -0.170758    -13.201557    4.027867    6.095238    -15.307362    -6.998862    -16.561947    -2.406765    26.483467    -20.802605    17.388725    -18.739229    -2.476968    
33.525570    82.043518    -20.336218    2.351928    4.011625    -1.028924    -16.649904    10.588596    7.586441    7.080202    2.175297    -10.411982    3.271416    -18.044136    -9.751245    -24.209152    -0.328023    1.694929    12.350774    58.882915    -66.440819    25.816689    -11.955579    -47.040619    117.063644    -0.804787    69.872009    10.462377    0.458586    4.927882    68.725708    1.784614    12.160147    31.965221    11.130711    35.452148    -111.689087    -48.005310    26.111990    9.281596    -25.879272    9.075367    6.725187    23.842455    1.044259    -13.205098    4.702714    6.153985    -14.760038    -6.922325    -15.544550    -1.978688    26.532406    -19.972380    17.021582    -19.250286    -2.823216    
32.872234    82.091988    -20.478926    2.077869    3.642976    -2.013942    -16.499479    10.493420    7.829960    7.288042    1.988561    -9.924579    2.919031    -17.475340    -9.343546    -24.347622    -0.351915    1.697491    14.105458    59.022778    -68.299965    26.861492    -12.270583    -46.640427    116.914253    -0.287036    70.997047    10.499309    0.427285    4.614009    69.217735    1.719199    11.834986    33.145557    11.136668    34.291988    -110.717651    -49.944546    27.699366    10.284292    -24.889406    9.087398    6.428792    23.044024    2.254216    -13.135752    5.450598    6.124932    -14.221422    -6.910054    -14.605568    -1.463698    26.599380    -19.295315    16.510036    -19.642723    -3.116696    
32.218967    82.145088    -20.626831    1.774163    3.347656    -2.946229    -16.295561    10.393931    8.134508    7.537241    1.747772    -9.474378    2.529755    -16.890863    -8.978706    -24.506056    -0.328468    1.585942    15.460344    59.094143    -69.766304    27.714609    -12.501166    -46.383938    116.725533    0.189261    72.038673    10.492910    0.392418    4.303041    69.735291    1.579361    11.530056    34.215473    11.067882    33.067921    -109.612045    -51.829414    29.349068    11.285992    -23.955935    9.123926    6.144875    22.210705    3.443335    -12.985029    6.267063    6.014327    -13.686665    -6.959257    -13.863260    -0.937864    26.666435    -18.745085    15.908113    -19.891294    -3.275749    
